<svg width="411" height="418" viewBox="0 0 411 418" fill="none" xmlns="http://www.w3.org/2000/svg">
<g clip-path="url(#clip0_14_58)">
<path d="M67.2079 138.446C55.0625 127.516 47.5711 112.91 46.2673 97.6169C45.5725 88.9707 46.9053 80.3956 48.9746 72.1015C51.0047 63.9642 53.958 55.6923 60.3371 50.0315C63.8298 46.932 68.1792 44.7817 72.9616 43.7901C77.744 42.7984 82.7962 42.9992 87.6258 44.373C92.4555 45.7467 96.8979 48.2465 100.52 51.6288C104.142 55.0111 106.821 59.1604 108.295 63.6725C109.563 67.5561 109.89 71.7572 108.518 75.4585C105.64 83.2224 96.4479 86.8098 90.6826 92.8952C84.7248 99.1838 82.6568 107.893 80.1194 116.068C77.5819 124.242 73.9294 132.759 66.1872 137.079" fill="#F2F2F2"/>
<path d="M285.106 334.283C301.381 336.844 317.71 333.544 330.749 325.06C338.094 320.23 344.125 313.885 349.474 307.148C354.722 300.538 359.505 293.134 360.074 284.716C360.386 280.107 359.408 275.427 357.234 271.133C355.06 266.84 351.765 263.078 347.67 260.216C343.575 257.353 338.82 255.487 333.868 254.799C328.916 254.111 323.936 254.625 319.413 256.291C315.521 257.725 311.958 260.08 309.849 263.431C305.426 270.462 308.26 279.757 306.97 287.967C305.637 296.451 299.955 303.445 294.992 310.468C290.029 317.492 285.484 325.584 286.833 334.219" fill="#F2F2F2"/>
<path d="M175.167 277.816C153.704 269.644 135.31 255.217 122.854 236.786C110.65 218.763 104.682 197.92 105.815 177.281L106.75 177.381C104.29 219.556 132.551 260.525 175.476 277.011C188.302 281.962 201.901 284.529 215.478 284.562L215.533 285.436C201.832 285.403 188.109 282.813 175.167 277.816Z" fill="#E6E6E6"/>
<path d="M312.353 197.517C313.889 155.469 286.234 116.2 243.536 99.8011C230.892 94.9208 217.495 92.3561 204.106 92.2531L204.057 91.3792C221.957 91.5405 239.793 96.029 255.832 104.409C271.871 112.789 285.569 124.776 295.596 139.207C307.772 156.838 313.959 177.258 313.288 197.601L312.353 197.517Z" fill="#E6E6E6"/>
<path d="M283.491 351.771C243.34 336.351 222.125 293.994 236.198 257.352C250.272 220.709 294.386 203.443 334.536 218.864C374.687 234.284 395.902 276.64 381.829 313.283C367.755 349.926 323.641 367.191 283.491 351.771ZM334.227 219.669C294.563 204.436 250.984 221.492 237.081 257.691C223.178 293.889 244.137 335.732 283.8 350.966C323.464 366.199 367.043 349.143 380.946 312.944C394.849 276.746 373.89 234.903 334.227 219.669Z" fill="#3F3D56"/>
<path d="M84.872 160.873C44.7215 145.453 23.5062 103.096 37.5794 66.4537C51.6527 29.8109 95.7667 12.5454 135.917 27.9658C176.068 43.3863 197.283 85.7426 183.21 122.385C169.136 159.028 125.022 176.294 84.872 160.873ZM135.608 28.7713C95.9441 13.5378 52.3647 30.5942 38.4621 66.7926C24.5594 102.991 45.5177 144.834 85.1813 160.068C124.845 175.301 168.424 158.245 182.327 122.046C196.23 85.8478 175.271 44.0048 135.608 28.7713Z" fill="#3F3D56"/>
<path d="M104.59 92.6187L93.7822 101.546L98.8555 107.306C98.8555 107.306 108.128 96.1771 108.443 95.7405C109.193 95.7478 109.915 95.5416 110.512 95.1493C111.109 94.757 111.552 94.197 111.785 93.5435C112.017 92.8899 112.027 92.1735 111.813 91.4891C111.599 90.8047 111.171 90.1846 110.586 89.7107C110.001 89.2367 109.287 88.9314 108.537 88.8351C107.788 88.7387 107.038 88.8559 106.388 89.1711C105.738 89.4863 105.218 89.9847 104.897 90.6003C104.576 91.2159 104.469 91.9198 104.59 92.6187L104.59 92.6187Z" fill="#A0616A"/>
<path d="M70.9955 81.4953C70.1389 92.2953 78.0827 102.415 83.8075 113.087C84.732 113.83 85.8007 114.393 86.9451 114.741C88.0896 115.089 89.2846 115.214 90.4539 115.108C91.6232 115.002 92.7409 114.667 93.7357 114.126C94.7304 113.584 95.5803 112.847 96.231 111.962L103.074 102.764L95.8094 99.7686L91.6182 101.613L84.2508 91.4552L70.9955 81.4953Z" fill="#3F3D56"/>
<path d="M294.223 291.485C295.439 292.038 296.406 293 296.916 294.167C297.427 295.334 297.442 296.613 296.957 297.733C296.855 297.959 296.732 298.175 296.59 298.38L307.608 311.94L298.578 312.093L289.5 299.193C288.599 298.524 287.943 297.608 287.633 296.588C287.324 295.569 287.379 294.503 287.789 293.556C288.028 293.02 288.381 292.54 288.828 292.143C289.275 291.746 289.806 291.44 290.392 291.243C290.978 291.045 291.607 290.96 292.244 290.992C292.88 291.025 293.511 291.173 294.1 291.43C294.141 291.448 294.182 291.467 294.223 291.485Z" fill="#FFB6B6"/>
<path d="M304.152 306.373L298.113 311.626L308.844 325.085C309.605 326.048 310.606 326.827 311.751 327.349C312.897 327.871 314.148 328.119 315.387 328.068C316.895 328 318.309 327.473 319.415 326.568C320.521 325.662 321.259 324.426 321.519 323.046L326.02 297.894C326.347 296.138 325.934 294.291 324.864 292.732C323.794 291.172 322.149 290.019 320.268 289.51C318.419 289.004 316.476 289.194 314.865 290.037C313.254 290.881 312.108 292.311 311.678 294.01C311.662 294.077 311.646 294.144 311.631 294.211C311.579 294.449 311.54 294.69 311.516 294.934L310.026 313.479L304.152 306.373Z" fill="#333333"/>
<path d="M290.531 304.212L290.032 289.92C290.016 289.431 290.207 288.968 290.565 288.632C290.923 288.296 291.418 288.115 291.941 288.128L295.274 288.218C295.797 288.232 296.306 288.44 296.688 288.796C297.07 289.151 297.294 289.626 297.312 290.115L297.811 304.406C297.827 304.895 297.635 305.358 297.277 305.694C296.92 306.03 296.425 306.211 295.901 306.198L292.569 306.109C292.045 306.094 291.537 305.886 291.155 305.531C290.773 305.175 290.548 304.701 290.531 304.212Z" fill="#3F3D56"/>
<path d="M292.356 288.868C292.075 288.861 291.808 288.958 291.615 289.139C291.422 289.32 291.319 289.57 291.328 289.833L291.826 304.125C291.836 304.388 291.957 304.644 292.163 304.836C292.369 305.027 292.643 305.139 292.925 305.147L296.258 305.236C296.539 305.243 296.806 305.146 296.999 304.965C297.192 304.784 297.295 304.534 297.286 304.271L296.788 289.979C296.778 289.716 296.657 289.46 296.451 289.268C296.245 289.077 295.971 288.965 295.689 288.957L292.356 288.868Z" fill="#333333"/>
<path d="M292.292 334.309L312.108 341.92L319.054 323.835L299.238 316.225L292.292 334.309Z" fill="#FFB8B8"/>
<path d="M231.789 351.437L225.113 346.207L213.678 363.388L218.202 366.932L231.789 351.437Z" fill="#FFB6B6"/>
<path d="M246.584 353.015L238.169 351.708L238.566 372.507L244.268 373.393L246.584 353.015Z" fill="#FFB6B6"/>
<path d="M309.583 346.372C304.273 372.062 256.87 337.462 256.87 337.462L232.268 351.971L223.178 346.631C223.178 346.631 232.36 335.775 246.615 321.969C252.946 315.838 291.587 332.771 291.587 332.771L294.651 327.234L317.312 335.476L309.583 346.372Z" fill="#2F2E41"/>
<path d="M257.191 331.636L242.671 326.406C238.018 345.42 237.277 353.432 237.277 353.432L246.59 354.236L257.191 331.636Z" fill="#2F2E41"/>
<path d="M318.309 289.827L324.095 286.68L329.871 288.64L328.749 293.258L331.112 295.528C330.179 306.369 326.694 316.74 320.904 325.911C320.402 326.091 319.968 326.396 319.648 326.794C319.327 327.193 319.132 327.671 319.082 328.178L319.009 328.914L318.983 328.931C318.051 329.565 317.446 330.531 317.299 331.622L317.807 334.322C317.989 335.293 317.944 336.276 317.675 337.203C317.407 338.13 316.922 338.979 316.254 339.691C315.586 340.403 314.75 340.96 313.806 341.325C312.861 341.689 311.831 341.852 310.785 341.801C301.458 341.36 293.308 339.4 290.52 329.514L298.997 302.05L318.309 289.827Z" fill="#333333"/>
<path d="M323.808 287.995C329.617 290.226 335.978 287.737 338.015 282.435C340.051 277.132 336.992 271.025 331.182 268.794C325.372 266.562 319.012 269.052 316.975 274.354C314.939 279.656 317.998 285.764 323.808 287.995Z" fill="#FFB8B8"/>
<path d="M337.221 268.849C341.645 270.638 343.73 275.765 341.877 280.302C343.968 284.707 341.403 288.129 337.071 291.178C331.828 289.777 330.566 289.548 325.516 289.495L325.888 286.789L323.326 289.515C322.022 289.556 320.709 289.647 319.386 289.787C319.869 286.155 321.308 282.997 324.526 281C327.385 279.227 323.907 274.482 320.443 273.634L321.375 271.354L319.667 273.32C318.049 273.689 316.744 272.829 315.524 271.644L315.524 271.644C317.47 259.503 336.984 263.472 337.221 268.849Z" fill="#2F2E41"/>
<path d="M219.311 371.007L216.094 369.31L217.051 366.262L214.049 368.232L205.516 363.731C205.107 363.515 204.774 363.187 204.567 362.794C204.36 362.401 204.288 361.964 204.364 361.547C204.439 361.13 204.656 360.754 204.985 360.475C205.313 360.196 205.735 360.028 206.189 359.996L215.376 359.336L216.925 356.56L223.876 360.727L219.311 371.007Z" fill="#2F2E41"/>
<path d="M244.444 378.715L240.919 377.816L240.997 374.592L238.679 377.244L229.33 374.859C228.882 374.745 228.476 374.502 228.172 374.165C227.867 373.829 227.68 373.417 227.637 372.989C227.595 372.561 227.699 372.14 227.935 371.787C228.171 371.435 228.527 371.169 228.949 371.029L237.509 368.187L238.223 365.09L245.976 367.525L244.444 378.715Z" fill="#2F2E41"/>
<path d="M294.628 294.219C295.845 294.771 296.812 295.733 297.322 296.9C297.833 298.067 297.848 299.346 297.363 300.466C297.261 300.692 297.138 300.908 296.996 301.113L308.014 314.674L298.984 314.827L289.906 301.926C289.005 301.257 288.349 300.341 288.039 299.322C287.73 298.302 287.784 297.236 288.195 296.29C288.434 295.754 288.787 295.273 289.234 294.876C289.681 294.479 290.212 294.173 290.798 293.976C291.384 293.779 292.013 293.694 292.649 293.726C293.286 293.758 293.916 293.907 294.506 294.164C294.547 294.181 294.588 294.2 294.628 294.219Z" fill="#FFB6B6"/>
<path d="M304.557 309.106L298.519 314.359L309.249 327.819C310.011 328.781 311.012 329.561 312.157 330.083C313.302 330.605 314.554 330.852 315.792 330.802C317.301 330.733 318.715 330.207 319.821 329.301C320.927 328.395 321.665 327.159 321.924 325.78L326.425 300.627C326.753 298.872 326.34 297.025 325.27 295.465C324.2 293.906 322.555 292.753 320.674 292.243C319.759 291.993 318.81 291.91 317.883 292.001C316.956 292.091 316.068 292.353 315.271 292.771C314.473 293.189 313.781 293.755 313.234 294.436C312.688 295.118 312.297 295.902 312.084 296.744C312.067 296.81 312.052 296.877 312.037 296.944C311.985 297.182 311.946 297.424 311.922 297.667L310.432 316.212L304.557 309.106Z" fill="#333333"/>
<path d="M39.8988 205.999L43.6409 209.536L59.1646 198.543L53.6419 193.323L39.8988 205.999Z" fill="#A0616A"/>
<path d="M36.05 209.302L47.5566 220.179L47.6952 220.051C48.8262 219.008 49.4391 217.562 49.399 216.03C49.3589 214.499 48.6692 213.007 47.4815 211.885L47.4812 211.884L46.8979 208.497L41.4578 206.191L40.4533 205.241L36.05 209.302Z" fill="#2F2E41"/>
<path d="M102.666 207.048L107.822 207.649L111.54 189.456L103.929 188.57L102.666 207.048Z" fill="#A0616A"/>
<path d="M102.142 212.025L117.999 213.871L118.012 213.684C118.116 212.164 117.566 210.63 116.482 209.42C115.398 208.209 113.869 207.423 112.233 207.232L112.232 207.232L109.475 204.853L103.931 206.266L102.547 206.104L102.142 212.025Z" fill="#2F2E41"/>
<path d="M50.804 129.8C49.7067 133.016 53.8087 144.404 57.2225 147.122C57.8027 147.585 58.1445 147.848 58.1445 147.848L59.6399 147.994L77.7499 149.761C80.0258 152.402 88.2779 156.469 95.1453 159.556C100.612 162.011 102.701 165.872 102.701 165.872C99.9566 177.942 101.505 188.105 103.047 200.457L110.023 201.938L118.472 161.381C118.655 160.505 118.554 159.583 118.182 158.728C117.811 157.874 117.185 157.125 116.383 156.575L75.7993 128.749C75.7993 128.749 73.4915 127.395 67.416 127.687C57.4136 128.168 51.604 127.461 50.804 129.8Z" fill="#2F2E41"/>
<path d="M59.577 132.466C56.9795 134.752 55.091 146.303 56.8684 150.114L57.4394 150.867L57.6466 151.085C57.3321 156.966 69.638 179.245 69.638 179.245C60.7546 184.027 51.9364 190.635 45.7462 199.457L51.9377 204.552L82.3857 184.996C83.1832 184.483 83.781 183.748 84.1004 182.885C84.4198 182.023 84.4459 181.074 84.1753 180.164L80.0922 166.431L75.8262 137.838C66.4342 133.924 61.468 130.804 59.577 132.466Z" fill="#2F2E41"/>
<path d="M50.5926 131.149C50.5706 131.14 50.5277 129.697 50.5182 129.69C50.3585 129.577 48.0457 128.441 49.9747 125.028L52.1941 121.309L52.8721 117.533L52.137 116.065L54.5937 115.104L56.3708 107.146L61.7329 91.9057C62.6475 86.3146 64.7471 81.6861 70.8273 81.404L78.7333 78.645L85.5511 81.1775L91.6529 88.3029L92.777 96.5258L87.1574 115.482L87.3542 118.199L87.2323 118.24C87.2229 118.243 86.2746 118.561 85.8257 118.763C85.591 118.906 85.3025 120.536 85.171 121.963L84.4157 125.32L82.9489 125.634L83.8426 127.864L85.5369 135.875L85.3096 135.722C85.0534 135.551 81.0631 138.128 50.8358 131.09C50.6963 131.057 50.6477 131.17 50.5926 131.149Z" fill="#3F3D56"/>
<path d="M98.748 103.946L96.8068 101.902C96.5024 101.581 96.3396 101.168 96.3542 100.753C96.3687 100.339 96.5594 99.9564 96.8844 99.6904L106.393 91.9268C106.719 91.6615 107.152 91.5345 107.597 91.5735C108.043 91.6126 108.464 91.8145 108.77 92.1351L110.711 94.1788C111.015 94.5 111.178 94.9132 111.163 95.3279C111.149 95.7426 110.958 96.1248 110.633 96.3908L101.124 104.154C100.799 104.42 100.366 104.547 99.9201 104.508C99.4746 104.469 99.0531 104.267 98.748 103.946Z" fill="#3F3D56"/>
<path d="M108.057 92.2919C107.893 92.1192 107.666 92.0103 107.426 91.9893C107.186 91.9683 106.952 92.0367 106.777 92.1797L97.2681 99.9433C97.093 100.087 96.9903 100.293 96.9824 100.516C96.9746 100.74 97.0623 100.962 97.2263 101.135L99.1675 103.179C99.3319 103.352 99.5591 103.461 99.7992 103.482C100.039 103.503 100.273 103.434 100.448 103.291L109.957 95.5277C110.132 95.3843 110.235 95.1783 110.243 94.9549C110.25 94.7314 110.163 94.5087 109.999 94.3357L108.057 92.2919Z" fill="#333333"/>
<path d="M84.2079 79.1032C89.5688 81.1622 95.438 78.8651 97.3171 73.9725C99.1962 69.0799 96.3736 63.4446 91.0126 61.3856C85.6517 59.3267 79.7825 61.6238 77.9034 66.5164C76.0243 71.409 78.8469 77.0443 84.2079 79.1032Z" fill="#A0616A"/>
<path d="M80.6447 74.1166C80.3378 73.6443 79.8694 73.2777 79.3213 73.0808C79.1429 73.0413 78.9599 73.0373 78.7844 73.0689C78.6089 73.1005 78.4449 73.167 78.3032 73.2641C78.2304 73.3027 78.1472 73.3231 78.0613 73.3234C77.9754 73.3237 77.8895 73.304 77.8113 73.2659C76.7623 72.9025 75.2282 70.3011 76.3767 66.8596C76.9226 65.224 76.9134 62.098 79.1577 61.2689C79.4986 60.7174 83.1699 55.0737 89.1423 57.1731C95.2575 59.3205 98.8576 61.9754 99.0168 64.4504C99.047 66.3785 98.8968 68.295 98.568 70.1782L98.3709 71.2973L98.2677 70.1503C98.2657 70.1287 98.0651 68.069 96.6837 66.877C96.5497 67.1482 96.3657 67.3933 96.1396 67.6015C95.2193 68.435 93.6418 68.6037 92.1205 68.0314C91.0833 67.5992 90.1274 66.9992 89.299 66.2606C89.3533 66.4472 89.3494 66.6413 89.288 66.8193C89.2265 66.9974 89.1101 67.1519 88.9527 67.2641C88.7953 67.3764 88.6037 67.4416 88.4009 67.452C88.1981 67.4624 87.9928 67.4175 87.8098 67.3227L87.5415 67.1831C87.457 67.1391 87.3604 67.1232 87.2686 67.1382C87.1767 67.1533 87.0953 67.1982 87.0386 67.2654C86.9819 67.3325 86.9533 67.4175 86.958 67.5057C86.9626 67.5939 87.0001 67.6797 87.0639 67.7482L87.2646 67.9636L86.914 67.9808C85.5186 68.0087 84.2007 68.4692 83.1664 69.2904C82.1322 70.1116 81.4399 71.2472 81.1977 72.5197L80.8581 74.4482L80.6447 74.1166Z" fill="#2F2E41"/>
<path d="M181.757 270.032C181.487 269.941 181.249 269.776 181.074 269.56C180.899 269.344 180.797 269.087 180.78 268.824C180.764 268.561 180.834 268.305 180.981 268.089C181.129 267.874 181.347 267.711 181.605 267.621L181.818 267.333C181.816 267.302 181.814 267.272 181.812 267.242C181.766 266.563 181.507 265.899 181.067 265.334C180.626 264.77 180.025 264.329 179.338 264.068C178.652 263.807 177.91 263.737 177.206 263.867C176.503 263.997 175.868 264.321 175.384 264.798C173.447 266.703 171.222 268.501 169.956 270.815C169.397 271.838 169.038 272.955 168.896 274.116C168.315 268.259 169.084 262.431 171.15 257.027C171.67 255.671 172.273 254.349 172.955 253.065C173.516 252.014 174.126 250.99 174.786 249.995C178.376 244.596 183.341 240.151 189.271 237.023C191.647 236.796 193.847 235.888 195.574 234.422C196.197 233.896 196.73 233.283 197.156 232.604C196.921 232.544 196.686 232.473 196.456 232.4C196.384 232.377 196.309 232.352 196.238 232.328L196.211 232.319C195.96 232.234 195.736 232.085 195.566 231.889C195.396 231.692 195.288 231.458 195.254 231.213C195.22 230.969 195.262 230.725 195.375 230.51C195.488 230.296 195.666 230.12 195.89 230.005C196.029 229.933 196.168 229.861 196.307 229.79C196.519 229.678 196.734 229.571 196.946 229.46C196.969 229.45 196.992 229.439 197.013 229.427C197.257 229.301 197.499 229.177 197.742 229.051C197.601 228.493 197.326 227.965 196.937 227.509C195.586 225.947 192.998 225.676 191.231 226.608C189.46 227.538 188.471 229.419 188.225 231.337C188.073 232.991 188.225 234.674 188.675 236.315C188.541 236.387 188.405 236.455 188.272 236.527C185.826 237.858 183.541 239.418 181.449 241.185C182.713 238.791 183.33 236.115 183.251 233.378C183.097 230.797 181.936 228.227 181.018 225.693C179.915 222.651 175.474 222.088 174.014 224.847C174 224.874 173.985 224.901 173.972 224.928C174.168 225.148 174.356 225.373 174.536 225.605C174.762 225.898 174.891 226.242 174.908 226.592C174.925 226.943 174.828 227.284 174.63 227.57C174.432 227.856 174.143 228.074 173.8 228.196C173.456 228.318 173.075 228.338 172.706 228.252L172.668 228.244C172.446 229.082 172.294 229.939 172.213 230.808C172.009 233.24 172.349 235.717 173.211 238.082C174.074 240.447 175.439 242.65 177.223 244.553C177.341 244.675 177.456 244.796 177.575 244.916C175.108 247.641 173.052 250.677 171.457 253.946C170.523 255.878 169.763 257.887 169.184 259.953L169.2 259.878C169.58 257.479 169.052 254.98 167.706 252.803C165.694 249.601 162.004 247.288 159.61 244.416C159.359 244.102 159.022 243.856 158.637 243.707C158.253 243.559 157.837 243.514 157.44 243.577C157.043 243.641 156.68 243.81 156.396 244.066C156.111 244.322 155.915 244.653 155.832 245.021C155.826 245.047 155.821 245.073 155.816 245.1C156.205 245.443 156.573 245.807 156.916 246.191C157.113 246.411 157.301 246.636 157.481 246.868C157.706 247.161 157.836 247.505 157.853 247.856C157.87 248.206 157.773 248.547 157.575 248.833C157.377 249.119 157.088 249.338 156.744 249.459C156.401 249.581 156.02 249.601 155.651 249.515L155.613 249.507C155.586 249.5 155.562 249.495 155.535 249.489C155.662 251.478 156.153 253.453 156.988 255.327C158.032 257.609 159.552 259.695 161.454 261.459C163.356 263.222 165.601 264.626 168.05 265.583L168.054 265.584C167.705 268.483 167.683 271.426 167.987 274.366L178.278 278.319C178.355 278.228 178.43 278.133 178.503 278.042C177.53 277.731 176.593 277.311 175.715 276.793C176.807 276.231 177.902 275.663 178.993 275.101C179.017 275.092 179.039 275.081 179.061 275.069C179.616 274.78 180.174 274.496 180.729 274.207L180.73 274.207C181.266 272.873 181.611 271.47 181.757 270.032L181.757 270.032Z" fill="#E6E6E6"/>
<path d="M287.161 143.392C287.298 143.63 287.356 143.896 287.327 144.156C287.298 144.415 287.183 144.655 286.999 144.843C286.815 145.031 286.569 145.158 286.296 145.207C286.023 145.255 285.736 145.223 285.473 145.115L285.096 145.17C285.074 145.192 285.053 145.213 285.032 145.235C284.558 145.722 284.259 146.339 284.17 147.006C284.081 147.674 284.208 148.364 284.534 148.988C284.86 149.613 285.37 150.145 286.001 150.517C286.633 150.889 287.356 151.085 288.081 151.081C290.976 151.064 294.011 151.306 296.703 150.576C297.893 150.252 299.002 149.735 299.979 149.046C296.036 153.369 291.091 156.791 285.479 159.08C284.07 159.653 282.623 160.15 281.144 160.568C279.932 160.91 278.703 161.2 277.457 161.439C270.692 162.728 263.598 162.478 256.757 160.709C254.784 159.31 252.435 158.484 250.027 158.343C249.16 158.289 248.297 158.353 247.465 158.533C247.599 158.726 247.725 158.928 247.845 159.127C247.881 159.19 247.92 159.256 247.956 159.318L247.97 159.342C248.097 159.563 248.155 159.81 248.137 160.053C248.119 160.296 248.026 160.525 247.869 160.712C247.712 160.899 247.497 161.036 247.251 161.106C247.005 161.177 246.738 161.178 246.482 161.11C246.323 161.068 246.163 161.025 246.004 160.982C245.759 160.919 245.517 160.851 245.272 160.787C245.247 160.778 245.222 160.771 245.197 160.765C244.917 160.691 244.641 160.616 244.362 160.542C244.052 161.01 243.866 161.545 243.819 162.106C243.676 164.041 245.436 165.915 247.475 166.442C249.516 166.973 251.673 166.353 253.295 165.222C254.649 164.207 255.793 162.974 256.679 161.575C256.835 161.614 256.989 161.657 257.144 161.696C259.996 162.398 262.898 162.84 265.807 163.018C263.057 163.804 260.586 165.203 258.598 167.097C256.783 168.936 255.74 171.425 254.542 173.731C253.101 176.5 256.051 179.781 259.224 178.877C259.255 178.869 259.285 178.86 259.316 178.851C259.332 178.574 259.358 178.299 259.394 178.026C259.442 177.681 259.602 177.365 259.851 177.118C260.101 176.871 260.429 176.704 260.794 176.641C261.158 176.578 261.541 176.62 261.893 176.762C262.244 176.905 262.548 177.14 262.765 177.439L262.787 177.469C263.583 177.05 264.34 176.572 265.051 176.041C267.026 174.536 268.622 172.646 269.737 170.49C270.853 168.334 271.465 165.958 271.535 163.511C271.537 163.351 271.541 163.195 271.539 163.037C275.451 162.814 279.283 162.113 282.941 160.954C285.095 160.263 287.175 159.407 289.161 158.394L289.093 158.434C287.009 159.802 285.539 161.829 284.932 164.175C284.062 167.645 285.132 171.614 284.799 175.112C284.755 175.487 284.827 175.874 285.007 176.225C285.188 176.576 285.469 176.878 285.818 177.095C286.167 177.311 286.569 177.434 286.977 177.448C287.385 177.462 287.781 177.367 288.119 177.174C288.143 177.159 288.167 177.145 288.19 177.131C288.152 176.645 288.146 176.16 288.172 175.677C288.187 175.401 288.213 175.126 288.25 174.852C288.298 174.508 288.457 174.191 288.707 173.944C288.956 173.697 289.285 173.531 289.649 173.467C290.014 173.404 290.397 173.446 290.748 173.588C291.1 173.731 291.404 173.967 291.62 174.265L291.642 174.296C291.658 174.318 291.672 174.337 291.688 174.359C293.08 172.937 294.185 171.286 294.954 169.478C295.87 167.259 296.278 164.861 296.154 162.431C296.03 160 295.377 157.589 294.234 155.344L294.232 155.341C296.666 153.617 298.886 151.65 300.855 149.471L296.003 140.085C295.877 140.096 295.749 140.111 295.625 140.125C296.131 140.97 296.528 141.865 296.807 142.787C295.558 142.452 294.301 142.12 293.052 141.784C293.028 141.776 293.003 141.768 292.977 141.762C292.34 141.594 291.704 141.42 291.066 141.252L291.065 141.252C289.661 141.8 288.349 142.519 287.161 143.392L287.161 143.392Z" fill="#E6E6E6"/>
<path d="M99.6401 101.54L86.6639 107.598L90.1543 114.256C90.1543 114.256 102.194 105.745 102.619 105.4C103.356 105.578 104.12 105.546 104.811 105.308C105.501 105.069 106.084 104.636 106.484 104.065C106.884 103.494 107.081 102.812 107.049 102.11C107.017 101.407 106.758 100.717 106.306 100.131C105.853 99.5453 105.23 99.0907 104.517 98.8276C103.804 98.5646 103.035 98.5054 102.313 98.6581C101.59 98.8107 100.948 99.168 100.471 99.6825C99.9934 100.197 99.7038 100.845 99.6401 101.54Z" fill="#A0616A"/>
<path d="M69.4652 83.2512C65.7988 93.3685 70.9766 104.844 73.8245 116.342C74.5409 117.262 75.4461 118.044 76.4822 118.637C77.5183 119.231 78.6625 119.623 79.8416 119.788C81.0208 119.954 82.2089 119.89 83.3301 119.599C84.4514 119.309 85.481 118.799 86.3531 118.102L95.4964 110.882L89.1249 106.363L84.5154 107.168L79.9153 95.787L69.4652 83.2512Z" fill="#3F3D56"/>
</g>
<defs>
<clipPath id="clip0_14_58">
<rect width="409.859" height="290.356" fill="white" transform="translate(63.1021) rotate(21.0101)"/>
</clipPath>
</defs>
</svg>
